<svg version="1.0" xmlns="http://www.w3.org/2000/svg" width="231px" height="48px" viewBox="0 0 1024 213" preserveAspectRatio="xMidYMid meet">
  <g transform="translate(0, 213) scale(0.1, -0.1)">
    
    <g transform="translate(0, 2130) scale(5.32, -5.32)">
      <rect x="0" y="0" width="400" height="400" rx="90" fill="#006400"/>
      <path d="M 140,140 L 140,120 A 10,10 0 0,1 150,110 L 160,110 L 160,95 A 15,15 0 0,1 190,95 L 190,110 L 210,110 L 210,95 A 15,15 0 0,1 240,95 L 240,110 L 250,110 A 10,10 0 0,1 260,120 L 260,140" fill="none" stroke="#ffffff" stroke-width="20" stroke-linecap="round" stroke-linejoin="round"/>
      <path d="M 110,140 L 290,140 C 350,140 370,220 330,290 C 310,320 270,320 250,270 C 240,245 220,240 200,240 C 180,240 160,245 150,270 C 130,320 90,320 70,290 C 30,220 50,140 110,140 Z" fill="none" stroke="#FFFFFF" stroke-width="20" stroke-linejoin="round" stroke-linecap="round"/>
      <path d="M 124,204 v -16 h 12 v 16 h 16 v 12 h -16 v 16 h -12 v -16 h -16 v -12 h 16 z" fill="#FFFFFF"/>
      <g fill="none" stroke="#FFFFFF" stroke-width="4" stroke-linecap="round" stroke-linejoin="round">
        <polygon points="270,183 277,197 263,197"/>
        <circle cx="290" cy="210" r="6"/>
        <circle cx="250" cy="210" r="6"/>
        <path d="M 264,224 L 276,236 M 276,224 L 264,236"/>
      </g>
    </g>

    <g fill="#FFFFFF" stroke="#FFFFFF" stroke-width="15" stroke-linejoin="round">
      <path d="M2790 1045 l0 -635 125 0 125 0 0 635 0 635 -125 0 -125 0 0 -635z"/>
      <path d="M3270 1575 l0 -105 325 -2 324 -3 -329 -438 -330 -439 0 -89 0 -89 490 0 490 0 0 105 0 105 -331 0 c-283 0 -330 2 -326 14 3 8 152 210 331 449 l326 434 0 81 0 82 -485 0 -485 0 0 -105z"/>
      <path d="M4450 1045 l0 -635 125 0 125 0 0 635 0 635 -125 0 -125 0 0 -635z"/>
      
      <path d="M4960 1045 l0 -635 130 0 130 0 0 220 0 220 158 0 157 -1 134 -219 133 -220 145 0 c135 0 143 1 134 18 -5 10 -73 119 -149 241 l-140 224 58 39 c110 73 170 190 170 331 0 215 -118 358 -329 403 -49 10 -153 14 -398 14 l-333 0 0 -635z m657 410 c61 -18 119 -76 129 -130 11 -63 0 -141 -28 -183 -46 -69 -75 -77 -300 -80 l-198 -3 0 205 0 206 173 0 c125 0 187 -4 224 -15z"/>
      <path d="M6580 1364 c-174 -46 -303 -169 -345 -329 -19 -76 -19 -214 0 -290 32 -123 112 -224 223 -283 168 -90 420 -96 589 -15 65 31 157 117 190 179 l22 41 -121 22 -120 22 -35 -41 c-58 -67 -102 -85 -213 -85 -101 0 -140 13 -206 68 -30 26 -67 91 -78 140 l-6 27 399 0 399 0 7 30 c15 68 -18 223 -66 307 -57 99 -182 186 -307 212 -74 15 -266 13 -332 -5z m326 -200 c49 -30 97 -94 110 -146 l6 -28 -266 0 c-206 0 -266 3 -266 13 1 23 37 92 64 120 14 15 49 39 78 53 47 22 63 25 140 21 75 -3 93 -7 134 -33z"/>
      <path d="M7935 1363 c-59 -22 -140 -76 -155 -103 -19 -36 -30 -21 -30 40 l0 60 -130 0 -130 0 0 -645 0 -645 130 0 130 0 0 231 0 232 46 -43 c71 -65 142 -93 249 -98 158 -7 272 34 370 132 102 103 145 211 145 364 0 210 -97 375 -267 455 -63 29 -78 31 -188 34 -96 3 -130 0 -170 -14z m181 -198 c67 -20 117 -64 151 -133 38 -78 40 -200 4 -279 -85 -190 -353 -218 -468 -49 -39 58 -53 103 -53 177 0 206 174 341 366 284z"/>
      <path d="M9022 1369 c-177 -35 -286 -163 -267 -315 16 -127 110 -198 310 -235 238 -44 257 -50 287 -79 50 -50 27 -125 -48 -156 -40 -17 -173 -18 -229 -3 -46 13 -115 77 -115 108 0 11 -6 21 -12 20 -7 0 -62 -6 -123 -12 l-110 -13 3 -28 c5 -45 47 -120 88 -156 91 -79 227 -115 408 -107 138 6 224 28 300 79 127 83 161 264 73 380 -54 71 -143 106 -347 138 -145 24 -176 33 -207 62 -25 23 -30 66 -12 100 26 48 151 73 244 47 43 -12 105 -67 105 -94 0 -13 6 -16 23 -12 12 3 66 9 120 12 110 8 114 12 78 91 -37 82 -133 149 -249 173 -61 13 -256 13 -320 0z"/>
    </g>
    
  </g>
</svg>