<svg version="1.1" xmlns="http://www.w3.org/2000/svg" width="32px" height="32px" viewBox="0 0 32 32">
  <g transform="scale(0.08)">
    <rect x="0" y="0" width="400" height="400" rx="90" fill="#006400"/>
    <path d="M 140,140 L 140,120 A 10,10 0 0,1 150,110 L 160,110 L 160,95 A 15,15 0 0,1 190,95 L 190,110 L 210,110 L 210,95 A 15,15 0 0,1 240,95 L 240,110 L 250,110 A 10,10 0 0,1 260,120 L 260,140" fill="none" stroke="#ffffff" stroke-width="20" stroke-linecap="round" stroke-linejoin="round"/>
    <path d="M 110,140 L 290,140 C 350,140 370,220 330,290 C 310,320 270,320 250,270 C 240,245 220,240 200,240 C 180,240 160,245 150,270 C 130,320 90,320 70,290 C 30,220 50,140 110,140 Z" fill="none" stroke="#FFFFFF" stroke-width="20" stroke-linejoin="round" stroke-linecap="round"/>
    <path d="M 124,204 v -16 h 12 v 16 h 16 v 12 h -16 v 16 h -12 v -16 h -16 v -12 h 16 z" fill="#FFFFFF"/>
    <g fill="none" stroke="#FFFFFF" stroke-width="4" stroke-linecap="round" stroke-linejoin="round">
      <polygon points="270,183 277,197 263,197"/>
      <circle cx="290" cy="210" r="6"/>
      <circle cx="250" cy="210" r="6"/>
      <path d="M 264,224 L 276,236 M 276,224 L 264,236"/>
    </g>
  </g>
</svg>